<svg width="1440" height="656" fill="none" xmlns="http://www.w3.org/2000/svg"><path d="M0 656h1440V-40H0v696Z" fill="#fff"/><path d="M1621.98 778.824h29.81-7.45c-111.82-42.387-231.08-79.475-350.34-100.671-74.55-15.893-156.54-26.489-231.08-37.084-29.82-5.302-67.091-10.6-96.91-21.196-52.174-15.893-89.447-42.386-111.808-79.475-14.912-21.191-22.366-37.084-29.819-58.279-14.907-31.791-22.361-63.578-37.273-95.369-14.907-47.684-37.267-95.369-52.174-143.053-14.913-31.79-22.366-63.579-37.273-95.369-14.907-31.79-29.814-63.58-52.18-95.369C608.216-.024 548.581-31.813 481.494-42.41c-22.363-5.298-52.179-5.298-74.541-10.596-52.179 0-96.904-5.298-149.082-5.298C160.967-68.901 71.517-68.901-17.932-79.498c-67.087-5.298-126.72-15.895-193.807-31.789v15.894h7.454C-114.835-68.9-17.932-58.304 71.517-53.006c67.088 5.298 134.174 5.298 201.262 10.596 44.724 0 96.903 5.299 141.628 10.597 37.27 5.298 74.541 10.596 104.358 26.491 44.724 21.193 81.997 47.685 111.811 84.772 22.36 31.79 44.726 68.878 59.633 105.966 14.907 42.386 29.814 84.772 44.727 127.158 14.907 47.685 37.267 100.669 52.174 148.354 7.459 31.786 22.366 63.577 44.726 90.07 22.366 37.085 59.634 63.578 104.36 79.471 29.814 10.6 59.633 15.897 89.444 15.897 59.64 5.298 119.27 15.894 178.9 21.192 141.63 21.195 275.8 58.279 417.44 111.266 0 0-7.46 0 0 0Z" fill="#F4F5F6"/><path d="M-211.739-42.409v15.895h7.454C-137.198-15.918-62.657-5.321 4.43-.023 78.971 5.276 146.06 10.574 220.6 21.17c44.725 5.299 96.903 10.597 141.628 21.193C466.586 68.855 541.127 116.54 585.85 201.311c14.912 26.492 29.819 58.281 44.726 84.773 22.36 47.684 44.726 95.369 52.18 143.053 7.453 42.386 14.907 79.475 29.814 121.861 7.453 26.489 14.912 58.28 29.819 84.773 14.907 26.489 37.267 52.982 67.087 63.577 14.907 5.298 29.814 10.596 44.726 10.596 37.268 5.298 74.54 5.298 104.354 5.298 52.184 0 104.364-5.298 156.544 0 119.26 5.302 238.52 26.493 357.79 58.284H1517.62h-7.46c-14.9-5.298-37.27-10.6-52.18-15.898-89.44-26.489-186.35-42.386-275.8-52.982-59.63-5.297-111.81-5.298-171.44-10.595-37.277 0-74.544 0-119.271-5.298-29.813-5.298-52.179-10.596-74.54-26.493-29.813-15.893-44.726-37.089-59.633-68.875-14.907-26.493-22.36-58.284-29.814-84.773-7.459-37.089-22.366-79.475-29.819-116.564-14.907-47.683-37.267-95.368-52.18-143.052-14.907-31.79-29.814-58.281-44.721-84.772C556.035 95.346 481.494 47.662 384.591 26.468c-37.271-10.596-81.996-15.894-126.72-21.192C183.329-.023 101.334-5.321 26.793-15.918c-67.087-5.298-134.174-10.596-193.807-21.193-14.909 0-29.817-5.298-44.725-5.298Z" fill="#F4F5F6"/><path d="M570.938-121.882c67.086 15.895 111.812 47.684 141.626 95.369 14.913 31.79 29.819 58.28 37.273 95.368 14.907 42.387 29.814 90.071 37.267 132.457 14.913 52.983 29.82 100.667 52.18 148.352 14.913 31.789 29.819 63.579 44.726 95.37 14.907 26.489 29.82 52.982 59.634 74.173 29.813 26.494 67.086 42.387 104.356 52.982 44.72 15.898 96.9 26.493 141.63 37.089 96.9 21.195 193.81 42.386 290.71 74.177 59.63 15.894 111.81 37.089 171.44 52.982h7.46v-15.893h-7.46c-44.72-15.898-81.99-26.493-126.72-42.386-96.9-31.791-201.26-58.284-305.62-79.476-52.17-10.595-104.35-26.493-156.53-42.386-29.82-10.595-59.63-21.191-81.993-37.089-37.273-21.191-59.634-52.982-82-84.772-14.907-26.489-29.814-58.28-44.721-84.771-22.366-47.685-37.272-90.071-52.179-137.755-14.907-47.685-22.366-95.369-37.273-148.352C757.29 26.47 742.383-5.32 727.477-42.408c-7.46-26.492-22.367-58.281-52.18-79.474H570.938ZM712.57 778.824l-7.454-5.298c-14.907-5.298-22.36-15.894-29.814-26.489-14.912-21.195-22.366-42.387-22.366-63.582-7.453-37.088-7.453-68.875-14.907-105.964-7.453-42.386-7.453-90.07-14.906-132.457-7.454-47.684-29.82-95.369-52.18-143.054l-44.724-79.474c-44.725-58.281-104.358-100.667-178.899-121.86-52.179-15.895-96.904-26.491-149.083-37.088-59.632-5.298-126.72-10.596-186.353-21.193-74.54-5.298-149.082-15.895-216.169-21.193h-7.454v15.895h7.454c52.179 5.298 96.904 10.596 149.082 15.895 81.996 5.298 156.537 15.894 231.078 26.49 52.179 5.3 104.358 15.896 149.082 31.79 74.542 26.492 134.174 63.58 171.445 116.562 37.271 52.983 67.087 105.966 89.448 164.248 14.912 47.684 22.366 95.369 29.819 143.053 0 47.684 7.454 95.368 7.454 137.755 0 31.79 7.453 68.875 14.906 100.666 29.82 5.298 52.18 5.298 74.541 5.298Z" fill="#F4F5F6"/><path d="M503.856 778.815h29.817c0-26.489 7.454-52.982 7.454-79.475 7.454-58.279 7.454-121.857 7.454-180.141 0-42.386-7.454-79.471-29.816-121.857-14.909-42.387-29.817-79.476-59.634-111.265-29.816-42.386-67.086-79.474-119.265-100.667-37.271-21.193-81.995-37.088-126.72-47.685-74.541-21.193-149.083-26.491-231.078-37.088-44.725-5.298-96.903-10.596-149.082-10.596-14.909 0-29.817 0-44.725-5.298v15.894h14.908c96.904 5.299 193.807 15.895 283.257 31.79 59.633 10.596 111.811 21.193 163.99 37.088 59.633 15.895 104.358 42.386 141.629 74.176 29.816 26.491 52.178 58.281 74.541 90.07 29.816 47.683 52.179 100.669 59.633 153.651 7.454 47.685 7.454 95.369 0 143.053 0 47.684-7.454 95.368-22.363 148.35ZM846.72-121.882h-29.814v5.298c7.454 26.491 14.907 58.28 14.907 84.772 7.454 63.58 22.36 121.86 29.814 185.44 14.913 84.772 52.18 164.246 96.906 243.722 22.36 37.085 59.637 74.173 104.357 100.666 29.82 15.894 67.09 31.787 96.9 42.387 59.64 21.191 111.82 37.088 171.45 52.982 104.36 31.79 216.17 63.577 320.53 95.368V672.86h-7.46c-37.27-10.6-82-26.493-119.26-37.089-89.46-26.493-178.9-52.982-268.35-79.475-44.73-15.893-96.91-31.791-141.63-52.982-59.64-26.493-104.36-63.582-141.63-116.564-7.453-15.893-22.36-31.788-29.814-47.683-37.273-63.579-59.633-127.158-74.54-196.036-7.459-52.983-14.913-111.264-22.366-164.246 7.453-37.088 0-68.878 0-100.667Z" fill="#F4F5F6"/><path d="M414.407 778.815h22.362c14.908-58.279 29.817-111.261 29.817-169.541V503.306c-7.455-58.28-29.817-100.666-59.633-148.35-37.271-58.282-89.45-100.668-156.537-132.458-44.725-15.894-96.903-31.789-141.628-42.386-104.358-21.193-216.169-26.491-320.527-26.491v21.193c67.087 0 126.72 0 193.807 5.298 67.087 5.299 126.72 15.895 193.807 37.088 89.45 26.492 156.536 68.878 208.716 137.756 22.362 31.79 44.724 63.577 52.178 100.666 14.908 47.684 14.908 100.666 14.908 148.35-7.454 58.284-14.908 111.266-29.816 169.546-7.454 0-7.454 5.297-7.454 5.297ZM943.638-121.882h-22.36v68.878c0 52.982 0 111.263 7.453 164.246l22.36 111.263c7.454 31.79 29.82 63.58 44.727 90.071 44.722 68.877 104.362 121.859 178.902 164.245 44.72 26.493 96.9 42.386 149.08 63.582 96.9 37.088 201.26 63.577 305.62 95.368 7.45 0 14.9 5.298 14.9 5.298v-15.894h-7.45c-59.63-21.195-119.27-37.088-178.9-58.284-67.09-21.191-134.17-42.386-193.81-68.875-44.72-21.195-89.44-42.386-134.17-74.177-52.18-37.089-89.45-79.473-119.27-127.158-29.809-42.386-52.175-84.772-59.629-132.457-7.453-42.386-14.907-79.474-14.907-121.86v-153.65c7.454-5.298 7.454-5.298 7.454-10.596Z" fill="#F4F5F6"/><path d="M-211.739 392.056v31.791c14.908-5.298 22.362-10.595 37.27-15.893 52.18-21.195 111.812-31.791 163.991-26.493 141.629 15.893 238.532 116.563 238.532 217.229 0 37.089 0 68.876-7.454 105.964-7.454 26.493-7.454 47.685-14.909 74.178h22.363c7.454-15.898 7.454-31.791 14.908-47.684 7.454-42.387 14.909-84.773 14.909-127.16 0-90.07-52.18-158.95-134.175-206.634-89.45-52.981-186.353-58.28-290.71-21.191l-44.725 15.893Z" fill="#F4F5F6"/><path d="M-211.739 333.764v31.79c67.087-31.79 141.628-42.386 223.624-31.79 74.54 10.597 141.628 42.387 193.806 90.071 37.271 42.386 67.088 84.773 74.542 143.053v100.666L257.871 778.82h22.362c14.908-52.982 29.816-100.667 29.816-153.649 0-37.088 0-68.879-7.454-100.67-22.362-68.875-67.087-121.857-134.174-158.947-52.179-31.79-96.904-47.684-149.082-52.982-81.996-15.895-156.537-10.597-231.078 21.192Z" fill="#F4F5F6"/><path d="M332.411 778.828h22.363c7.454-21.191 7.454-37.089 14.908-58.28 14.909-52.982 22.363-105.964 22.363-158.95 0-37.085-7.454-79.471-22.363-116.56-44.725-79.474-111.811-143.053-216.169-180.141-52.179-15.895-104.358-26.492-156.537-31.79-59.633-10.597-126.72-10.597-186.353-5.298h-22.362V254.3c7.454 0 14.908-5.298 29.816-5.298a772.837 772.837 0 0 1 156.537 0C34.247 254.3 93.88 264.897 153.513 286.09c96.903 37.088 156.536 100.669 193.807 180.14 14.908 37.088 22.362 74.177 22.362 111.265 0 47.685-7.454 95.369-22.362 148.351-7.455 15.893-14.909 37.088-14.909 52.982Z" fill="#F4F5F6"/><path d="M168.408 778.82h22.362c0-15.894 7.454-26.489 7.454-42.387 7.455-37.089 14.909-74.173 7.455-111.262 0-37.088-7.455-68.879-29.817-105.968C123.683 434.431 26.78 397.346-85.032 407.942c-37.271 5.297-67.087 15.893-96.904 26.489-14.908 5.301-22.362 10.599-37.27 15.897v31.791c14.908-5.302 37.27-10.6 52.179-21.195 29.816-10.596 59.632-21.192 96.903-21.192 74.541-5.301 134.174 10.596 186.353 58.28 44.725 37.089 67.087 84.773 67.087 137.755 0 31.791 0 68.875-7.454 100.666 0 15.898 0 31.791-7.454 42.387ZM1651.78 582.789v-15.897h-7.45c-37.27-10.596-67.09-21.191-104.36-31.787-74.54-21.195-141.63-47.684-208.71-79.475-96.9-42.387-171.45-100.668-231.08-180.142-29.82-37.088-52.18-79.474-67.09-121.86-7.45-31.79-14.91-68.878-14.91-105.965V-121.883h-22.357v74.175c0 52.983 0 100.668 7.457 153.65 7.45 58.281 29.81 116.562 67.08 169.545 37.28 47.684 74.54 95.369 126.72 132.458 44.73 31.786 96.9 58.279 149.08 79.475 74.54 31.786 156.54 58.28 238.54 84.768 22.36-5.297 44.72 5.302 67.08 10.6Z" fill="#F4F5F6"/><path d="M-211.739 508.612v31.791s7.454 0 7.454-5.298c29.816-10.596 59.633-21.195 96.904-26.493 37.27-5.298 67.087-5.298 104.357 0 59.633 15.897 104.358 52.982 126.72 100.666 14.909 26.493 14.909 52.986 14.909 79.475 0 26.493 0 58.284-7.454 84.773h22.362c0-10.596 0-15.894 7.454-26.489 0-26.493 7.454-63.582 0-95.373 0-37.084-14.908-68.875-37.271-95.368-44.725-52.982-104.357-84.773-178.899-84.773-29.816 0-67.086 5.302-96.903 15.898-14.908 5.297-37.271 15.893-59.633 21.191ZM1651.78 524.517V508.62h-7.45c-81.99-21.191-163.99-47.684-238.53-79.475-104.36-47.684-178.9-111.262-238.53-196.034-29.82-42.386-52.18-90.07-59.63-137.755-7.46-42.386-7.46-84.772-7.46-127.158 0-26.492 0-58.281 7.46-84.773h-14.92v63.58c0 47.684 0 95.368 7.46 143.053 7.46 37.088 14.91 74.175 37.27 105.965 59.63 100.667 141.63 174.842 253.44 233.122 74.54 37.089 149.09 63.582 231.08 84.773-7.45 0 14.91 5.302 29.81 10.599Z" fill="#F4F5F6"/><path d="M1651.77 455.63v-21.195h-7.45c-171.45-31.787-305.62-111.263-402.53-243.72-22.36-26.491-37.26-58.281-52.17-90.07-14.91-37.088-14.91-74.176-22.37-116.562v-105.965h-14.9c0 52.982-7.46 111.263 0 164.246 7.45 31.79 14.9 68.878 29.82 100.667 37.26 74.176 96.9 137.755 163.98 190.738 59.64 42.386 126.72 74.177 201.26 100.666 37.28 5.297 67.09 15.897 104.36 21.195Z" fill="#F4F5F6"/><path d="M1651.78 365.558v-26.491h-22.36c-59.63-5.298-104.36-26.491-156.54-52.982-67.08-37.089-111.81-79.475-156.53-137.756-22.37-31.789-44.73-68.877-59.63-111.263-7.46-31.79-14.92-68.878-14.92-100.667v-58.281h-22.36v105.965c0 37.088 7.46 68.878 29.82 100.667 37.27 68.878 89.45 132.457 156.54 180.141 52.18 37.088 111.81 68.878 178.9 84.773 22.36 10.596 44.72 15.894 67.08 15.894ZM78.971 778.82h22.363V699.345c0-31.787-7.454-58.28-29.817-84.769-29.816-37.089-67.087-58.284-119.266-68.88-29.816-5.297-59.632 0-89.449 5.298-14.908 0-44.725 5.298-74.541 15.893v31.791h7.454c29.816-5.297 67.087-15.893 96.904-15.893 29.816 0 59.633 0 89.449 10.596 44.725 21.195 74.541 52.982 89.45 95.368 7.453 26.493 7.453 52.982 7.453 79.475v10.596Z" fill="#F4F5F6"/><path d="M1323.79-121.882h-22.36v47.684c0 31.79 7.46 58.281 22.36 90.07 29.82 68.878 82 127.159 149.08 174.843 37.28 26.492 82 42.387 126.72 52.983 14.91 5.298 37.28 5.298 52.18 5.298v-31.789h-14.9c-44.73-5.298-82-15.895-119.27-37.088-81.99-42.386-134.17-105.965-171.45-180.141-14.9-37.088-22.36-79.474-22.36-121.86ZM56.61 778.828c0-26.493 0-52.986-14.909-79.475-14.908-31.791-37.27-52.982-67.087-68.88-22.362-10.595-52.179-15.893-74.541-21.191-37.271 0-67.087 5.298-104.358 10.596h-7.454v31.79c29.816-5.297 52.179-5.297 81.995-5.297 29.817 0 59.633 5.297 81.996 21.191 44.724 26.493 67.087 63.581 74.54 111.266H56.61ZM1651.79 79.452c-7.45 0-14.91-5.298-22.37-5.298-52.17-10.597-96.9-42.386-134.17-79.474-37.27-37.088-59.63-74.176-74.54-116.562h-29.81c7.45 42.386 22.36 79.474 52.17 111.263 29.82 42.386 74.55 79.474 126.72 100.667 29.82 10.597 59.63 21.194 89.45 26.492-7.45-10.597-7.45-26.492-7.45-37.088Z" fill="#F4F5F6"/><path d="M-74.871 271.153c216.318 0 391.68-124.644 391.68-278.4 0-153.756-175.362-278.4-391.68-278.4-216.319 0-391.68 124.644-391.68 278.4 0 153.756 175.361 278.4 391.68 278.4Z" fill="url(#a)"/><path d="M-143.997 582.306c356.29 0 645.12-205.296 645.12-458.539 0-253.246-288.83-458.541-645.12-458.541S-789.12-129.479-789.12 123.767c0 253.243 288.833 458.539 645.123 458.539Z" fill="url(#b)"/><path d="M-143.997 582.306c356.29 0 645.12-205.296 645.12-458.539 0-253.246-288.83-458.541-645.12-458.541S-789.12-129.479-789.12 123.767c0 253.243 288.833 458.539 645.123 458.539Z" fill="url(#c)"/><path d="M97.929 627.341c216.318 0 391.68-124.645 391.68-278.402 0-153.756-175.362-278.4-391.68-278.4-216.319 0-391.68 124.644-391.68 278.4 0 153.757 175.361 278.402 391.68 278.402Z" fill="url(#d)"/><path d="M362.88 954.871c216.317 0 391.68-124.646 391.68-278.4 0-153.759-175.363-278.4-391.68-278.4-216.319 0-391.68 124.641-391.68 278.4 0 153.754 175.361 278.4 391.68 278.4Z" fill="url(#e)"/><path d="M748.8 864.8c216.317 0 391.68-124.645 391.68-278.4S965.117 308 748.8 308c-216.321 0-391.683 124.645-391.683 278.4S532.479 864.8 748.8 864.8Z" fill="url(#f)"/><path d="M1215.36 856.612c216.32 0 391.68-124.641 391.68-278.4 0-153.755-175.36-278.398-391.68-278.398-216.317 0-391.68 124.643-391.68 278.398 0 153.759 175.363 278.4 391.68 278.4Z" fill="url(#g)"/><path d="M1399.68 668.282c216.32 0 391.68-124.645 391.68-278.4 0-153.757-175.36-278.402-391.68-278.402S1008 236.125 1008 389.882c0 153.755 175.36 278.4 391.68 278.4Z" fill="url(#h)"/><path d="M1278.73 754.259c216.32 0 391.68-124.642 391.68-278.4 0-153.754-175.36-278.398-391.68-278.398S887.046 322.105 887.046 475.859c0 153.758 175.364 278.4 391.684 278.4Z" fill="url(#i)"/><path d="M1509.13 357.134c216.32 0 391.68-124.645 391.68-278.4 0-153.757-175.36-278.4-391.68-278.4s-391.68 124.643-391.68 278.4c0 153.755 175.36 278.4 391.68 278.4Z" fill="url(#j)"/><path d="M1422.73 414.447c216.32 0 391.68-124.644 391.68-278.4 0-153.756-175.36-278.4-391.68-278.4s-391.68 124.644-391.68 278.4c0 153.756 175.36 278.4 391.68 278.4Z" fill="url(#k)"/><path d="M1376.65 746.075c216.31 0 391.68-124.646 391.68-278.4 0-153.757-175.37-278.4-391.68-278.4-216.32 0-391.684 124.643-391.684 278.4 0 153.754 175.364 278.4 391.684 278.4Z" fill="url(#l)"/><path d="M1249.93 852.518c216.32 0 391.68-124.646 391.68-278.4 0-153.759-175.36-278.402-391.68-278.402S858.246 420.359 858.246 574.118c0 153.754 175.364 278.4 391.684 278.4Z" fill="url(#m)"/><path d="M869.76 926.212c216.32 0 391.68-124.646 391.68-278.4 0-153.755-175.36-278.4-391.68-278.4-216.317 0-391.677 124.645-391.677 278.4 0 153.754 175.36 278.4 391.677 278.4Z" fill="url(#n)"/><path d="M1111.68 864.8c216.32 0 391.68-124.645 391.68-278.4S1328 308 1111.68 308C895.363 308 720 432.645 720 586.4s175.363 278.4 391.68 278.4Z" fill="url(#o)"/><path d="M1261.45 741.977c216.31 0 391.68-124.646 391.68-278.4 0-153.757-175.37-278.4-391.68-278.4-216.32 0-391.684 124.643-391.684 278.4 0 153.754 175.364 278.4 391.684 278.4Z" fill="url(#p)"/><path d="M1353.61 721.506c187.69 0 339.84-108.146 339.84-241.553 0-133.404-152.15-241.551-339.84-241.551-187.69 0-339.84 108.147-339.84 241.551 0 133.407 152.15 241.553 339.84 241.553Z" fill="url(#q)"/><path d="M1411.2 877.082c216.32 0 391.67-124.641 391.67-278.4 0-153.754-175.35-278.398-391.67-278.398-216.32 0-391.68 124.644-391.68 278.398 0 153.759 175.36 278.4 391.68 278.4Z" fill="url(#r)"/><path d="M1491.85 954.871c216.31 0 391.68-124.646 391.68-278.4 0-153.759-175.37-278.4-391.68-278.4-216.32 0-391.68 124.641-391.68 278.4 0 153.754 175.36 278.4 391.68 278.4Z" fill="url(#s)"/><path d="M1532.16 999.906c216.32 0 391.69-124.641 391.69-278.4 0-153.755-175.37-278.4-391.69-278.4s-391.68 124.645-391.68 278.4c0 153.759 175.36 278.4 391.68 278.4Z" fill="url(#t)"/><path d="M1480.33 881.181c216.32 0 391.68-124.642 391.68-278.4 0-153.755-175.36-278.398-391.68-278.398s-391.68 124.643-391.68 278.398c0 153.758 175.36 278.4 391.68 278.4Z" fill="url(#u)"/><path d="M414.729 934.4c216.319 0 391.677-124.645 391.677-278.4 0-153.759-175.358-278.4-391.677-278.4-216.319 0-391.68 124.641-391.68 278.4 0 153.755 175.361 278.4 391.68 278.4Z" fill="url(#v)"/><path d="M143.997 918.024c216.319 0 391.68-124.642 391.68-278.4 0-153.755-175.361-278.398-391.68-278.398-216.318 0-391.68 124.643-391.68 278.398 0 153.758 175.362 278.4 391.68 278.4Z" fill="url(#w)"/><path d="M74.88 680.565c216.319 0 391.68-124.646 391.68-278.4 0-153.756-175.361-278.4-391.68-278.4-216.319 0-391.68 124.644-391.68 278.4 0 153.754 175.361 278.4 391.68 278.4Z" fill="url(#x)"/><path d="M69.129 226.124c216.318 0 391.68-124.644 391.68-278.4 0-153.756-175.362-278.4-391.68-278.4-216.319 0-391.68 124.644-391.68 278.4 0 153.756 175.361 278.4 391.68 278.4Z" fill="url(#y)"/><path d="M-149.754 934.4c216.318 0 391.68-124.645 391.68-278.4 0-153.759-175.362-278.4-391.68-278.4-216.319 0-391.68 124.641-391.68 278.4 0 153.755 175.361 278.4 391.68 278.4Z" fill="url(#z)"/><defs><radialGradient id="a" cx="0" cy="0" r="1" gradientUnits="userSpaceOnUse" gradientTransform="matrix(390.43 0 0 277.512 -77.63 -6.162)"><stop stop-color="#fff"/><stop offset=".983" stop-color="#fff" stop-opacity="0"/></radialGradient><radialGradient id="b" cx="0" cy="0" r="1" gradientUnits="userSpaceOnUse" gradientTransform="matrix(640.552 0 0 455.295 -143.94 123.804)"><stop stop-color="#fff"/><stop offset=".983" stop-color="#fff" stop-opacity="0"/></radialGradient><radialGradient id="c" cx="0" cy="0" r="1" gradientUnits="userSpaceOnUse" gradientTransform="matrix(640.552 0 0 455.295 -143.94 123.804)"><stop stop-color="#fff"/><stop offset=".983" stop-color="#fff" stop-opacity="0"/></radialGradient><radialGradient id="d" cx="0" cy="0" r="1" gradientUnits="userSpaceOnUse" gradientTransform="matrix(390.43 0 0 277.512 99.19 348.026)"><stop stop-color="#fff"/><stop offset=".983" stop-color="#fff" stop-opacity="0"/></radialGradient><radialGradient id="e" cx="0" cy="0" r="1" gradientUnits="userSpaceOnUse" gradientTransform="matrix(390.43 0 0 277.512 362.396 676.507)"><stop stop-color="#fff"/><stop offset=".983" stop-color="#fff" stop-opacity="0"/></radialGradient><radialGradient id="f" cx="0" cy="0" r="1" gradientUnits="userSpaceOnUse" gradientTransform="matrix(390.43 0 0 277.512 748.184 586.998)"><stop stop-color="#fff"/><stop offset=".983" stop-color="#fff" stop-opacity="0"/></radialGradient><radialGradient id="g" cx="0" cy="0" r="1" gradientUnits="userSpaceOnUse" gradientTransform="matrix(390.43 0 0 277.512 1216.35 577)"><stop stop-color="#fff"/><stop offset=".983" stop-color="#fff" stop-opacity="0"/></radialGradient><radialGradient id="h" cx="0" cy="0" r="1" gradientUnits="userSpaceOnUse" gradientTransform="matrix(390.43 0 0 277.512 1399.09 390.03)"><stop stop-color="#fff"/><stop offset=".983" stop-color="#fff" stop-opacity="0"/></radialGradient><radialGradient id="i" cx="0" cy="0" r="1" gradientUnits="userSpaceOnUse" gradientTransform="matrix(390.43 0 0 277.512 1280.55 474.291)"><stop stop-color="#fff"/><stop offset=".983" stop-color="#fff" stop-opacity="0"/></radialGradient><radialGradient id="j" cx="0" cy="0" r="1" gradientUnits="userSpaceOnUse" gradientTransform="matrix(390.43 0 0 277.512 1507.61 80.117)"><stop stop-color="#fff"/><stop offset=".983" stop-color="#fff" stop-opacity="0"/></radialGradient><radialGradient id="k" cx="0" cy="0" r="1" gradientUnits="userSpaceOnUse" gradientTransform="matrix(390.43 0 0 277.512 1423.22 134.385)"><stop stop-color="#fff"/><stop offset=".983" stop-color="#fff" stop-opacity="0"/></radialGradient><radialGradient id="l" cx="0" cy="0" r="1" gradientUnits="userSpaceOnUse" gradientTransform="matrix(390.43 0 0 277.512 1379.01 468.584)"><stop stop-color="#fff"/><stop offset=".983" stop-color="#fff" stop-opacity="0"/></radialGradient><radialGradient id="m" cx="0" cy="0" r="1" gradientUnits="userSpaceOnUse" gradientTransform="matrix(390.43 0 0 277.512 1250.42 575.694)"><stop stop-color="#fff"/><stop offset=".983" stop-color="#fff" stop-opacity="0"/></radialGradient><radialGradient id="n" cx="0" cy="0" r="1" gradientUnits="userSpaceOnUse" gradientTransform="matrix(390.43 0 0 277.512 868.643 648.528)"><stop stop-color="#fff"/><stop offset=".983" stop-color="#fff" stop-opacity="0"/></radialGradient><radialGradient id="o" cx="0" cy="0" r="1" gradientUnits="userSpaceOnUse" gradientTransform="matrix(390.43 0 0 277.512 1112.52 586.998)"><stop stop-color="#fff"/><stop offset=".983" stop-color="#fff" stop-opacity="0"/></radialGradient><radialGradient id="p" cx="0" cy="0" r="1" gradientUnits="userSpaceOnUse" gradientTransform="matrix(390.43 0 0 277.512 1263.22 465.603)"><stop stop-color="#fff"/><stop offset=".983" stop-color="#fff" stop-opacity="0"/></radialGradient><radialGradient id="q" cx="0" cy="0" r="1" gradientUnits="userSpaceOnUse" gradientTransform="matrix(339.414 0 0 241.25 1355.65 478.455)"><stop stop-color="#fff"/><stop offset=".983" stop-color="#fff" stop-opacity="0"/></radialGradient><radialGradient id="r" cx="0" cy="0" r="1" gradientUnits="userSpaceOnUse" gradientTransform="matrix(390.43 0 0 277.512 1412.81 597.368)"><stop stop-color="#fff"/><stop offset=".983" stop-color="#fff" stop-opacity="0"/></radialGradient><radialGradient id="s" cx="0" cy="0" r="1" gradientUnits="userSpaceOnUse" gradientTransform="matrix(390.43 0 0 277.512 1491.18 677.343)"><stop stop-color="#fff"/><stop offset=".983" stop-color="#fff" stop-opacity="0"/></radialGradient><radialGradient id="t" cx="0" cy="0" r="1" gradientUnits="userSpaceOnUse" gradientTransform="matrix(390.43 0 0 277.512 1529.35 721.616)"><stop stop-color="#fff"/><stop offset=".983" stop-color="#fff" stop-opacity="0"/></radialGradient><radialGradient id="u" cx="0" cy="0" r="1" gradientUnits="userSpaceOnUse" gradientTransform="matrix(390.43 0 0 277.512 1483.14 603.084)"><stop stop-color="#fff"/><stop offset=".983" stop-color="#fff" stop-opacity="0"/></radialGradient><radialGradient id="v" cx="0" cy="0" r="1" gradientUnits="userSpaceOnUse" gradientTransform="matrix(390.43 0 0 277.512 416.555 656)"><stop stop-color="#fff"/><stop offset=".983" stop-color="#fff" stop-opacity="0"/></radialGradient><radialGradient id="w" cx="0" cy="0" r="1" gradientUnits="userSpaceOnUse" gradientTransform="matrix(390.43 0 0 277.512 143.381 639.374)"><stop stop-color="#fff"/><stop offset=".983" stop-color="#fff" stop-opacity="0"/></radialGradient><radialGradient id="x" cx="0" cy="0" r="1" gradientUnits="userSpaceOnUse" gradientTransform="matrix(390.43 0 0 277.512 73.06 402.3)"><stop stop-color="#fff"/><stop offset=".983" stop-color="#fff" stop-opacity="0"/></radialGradient><radialGradient id="y" cx="0" cy="0" r="1" gradientUnits="userSpaceOnUse" gradientTransform="matrix(390.43 0 0 277.512 69.048 -50.43)"><stop stop-color="#fff"/><stop offset=".983" stop-color="#fff" stop-opacity="0"/></radialGradient><radialGradient id="z" cx="0" cy="0" r="1" gradientUnits="userSpaceOnUse" gradientTransform="matrix(390.43 0 0 277.512 -148.049 656)"><stop stop-color="#fff"/><stop offset=".983" stop-color="#fff" stop-opacity="0"/></radialGradient></defs></svg>