<svg width="112" height="33" fill="none" xmlns="http://www.w3.org/2000/svg"><path d="M44.42 16.503c0 1.475-.358 2.591-1.049 3.376-.703.758-1.592 1.143-2.76 1.143-1.02 0-1.83-.28-2.401-.824-.571-.532-.85-1.396-.85-2.566l.027-8.519-3.383-.013-.027 8.72c0 1.25.239 2.352.73 3.27a5.364 5.364 0 0 0 2.057 2.126c.877.505 1.872.745 2.973.758h.027c1.367 0 2.415-.266 3.132-.797.663-.492 1.154-1.023 1.446-1.582h.12v2.126l3.317.013.053-14.594-3.383-.013-.027 7.377-.002-.001Zm12.063 4.653h-.146l-3.729-11.99-3.583-.012 4.87 14.62 5.016.014 4.963-14.58-3.584-.014-3.808 11.963v-.001ZM74.914 9.75c-1.14-.612-2.441-.93-3.888-.93H71c-1.433 0-2.72.305-3.848.904a6.716 6.716 0 0 0-2.694 2.578c-.65 1.103-.995 2.445-.995 3.961v.439c0 1.529.319 2.871.956 4 .65 1.117 1.54 1.995 2.68 2.592 1.115.599 2.428.904 3.875.904H71c1.433 0 2.72-.292 3.862-.89a6.66 6.66 0 0 0 2.707-2.579c.65-1.116.995-2.445.995-3.974v-.44c0-1.528-.319-2.857-.956-3.973a7.113 7.113 0 0 0-2.694-2.592Zm-3.928 11.405c-1.221 0-2.216-.413-2.986-1.196-.757-.797-1.154-1.9-1.154-3.31v-.266c0-1.41.411-2.512 1.167-3.31.757-.784 1.765-1.17 2.973-1.17v-.211l.013.212c1.248 0 2.269.412 3.026 1.196.756.797 1.14 1.9 1.14 3.31v.266c0 1.409-.411 2.512-1.167 3.31-.756.784-1.778 1.169-3.012 1.169Zm20.622-9.943h-.12a4.571 4.571 0 0 0-.89-1.05c-.424-.372-.954-.678-1.605-.931-.65-.24-1.446-.359-2.388-.372h-.026a6.633 6.633 0 0 0-3.357.877c-1.021.584-1.858 1.462-2.469 2.578-.61 1.117-.929 2.472-.929 4.014v.439c0 1.555.306 2.924.93 4.027.61 1.116 1.446 1.98 2.468 2.578a6.637 6.637 0 0 0 3.344.905h.027c1.393 0 2.495-.267 3.265-.785.716-.491 1.287-1.023 1.658-1.621h.133v2.02l3.317.014.066-20.536-3.383-.013-.04 7.855Zm-4.193.505.013.212c1.235 0 2.256.412 3.026 1.183.783.784 1.167 1.914 1.167 3.362v.266c0 1.462-.411 2.592-1.193 3.376-.782.785-1.805 1.17-3.013 1.17-1.194 0-2.203-.413-2.986-1.183-.783-.784-1.18-1.914-1.167-3.376v-.266c0-1.449.412-2.565 1.195-3.35.783-.784 1.778-1.169 2.986-1.169l-.027-.225Zm23.117.745a6.578 6.578 0 0 0-2.694-2.592c-1.141-.612-2.442-.93-3.888-.93h-.026c-1.434 0-2.721.305-3.849.903a6.716 6.716 0 0 0-2.694 2.579c-.65 1.103-.995 2.445-.995 3.961v.439c0 1.529.319 2.87.956 4 .65 1.117 1.54 1.995 2.681 2.592 1.114.599 2.428.904 3.875.904h.027c1.433 0 2.72-.292 3.861-.89a6.657 6.657 0 0 0 2.707-2.579c.65-1.117.982-2.445.982-3.974v-.426c.026-1.529-.292-2.858-.942-3.987h-.001Zm-6.622 8.798c-1.221 0-2.216-.412-2.986-1.195-.756-.798-1.154-1.901-1.154-3.31v-.266c0-1.41.412-2.513 1.168-3.31.756-.785 1.764-1.17 2.972-1.17v-.212l.014.212c1.247 0 2.268.412 3.025 1.197.757.798 1.141 1.901 1.141 3.31v.266c0 1.41-.412 2.513-1.167 3.31-.757.785-1.765 1.17-3.013 1.17v-.002ZM16.805 31.815c5.19-1.635 8.706-6.46 8.693-11.923L25.432 3.17a2.687 2.687 0 0 0-2.24-2.637 2.676 2.676 0 0 0-1.237.085L2.447 6.773A2.68 2.68 0 0 0 .59 9.34l.027 10.633c.04 8.401 8.187 14.369 16.19 11.843v-.001Z" fill="#222"/></svg>